<?xml version="1.0" standalone="no"?><!DOCTYPE svg PUBLIC "-//W3C//DTD SVG 1.1//EN" "http://www.w3.org/Graphics/SVG/1.1/DTD/svg11.dtd"><svg t="1615083557386" class="icon" viewBox="0 0 1024 1024" version="1.1" xmlns="http://www.w3.org/2000/svg" p-id="2562" width="20" height="20" xmlns:xlink="http://www.w3.org/1999/xlink"><defs><style type="text/css"></style></defs><path d="M1014.75080419 422.60766379c-17.90441586-23.74281215-44.76103907-37.36573725-73.69353669-37.36573725H657.57068402c19.20183751-21.66693774 31.13811399-60.07061277 31.78682595-72.26637425l4.28149078-17.77467278c16.0880253-64.22236047 13.36344121-131.81801699-7.91427072-195.65115164l-7.65478685-21.27771194c-12.45524537-37.36573725-48.65330403-63.4439077-87.96517262-63.4439077h-2.98407026c-51.76711509 0-97.17686498 43.5933605-97.17686499 93.41434311v29.7109504c0 141.54867825-95.10099058 251.44027363-227.30823453 270.77185195v600.44663808h553.86920847c42.03645385 0 79.27244914-29.06223957 90.56001592-70.44998372L1030.57934563 506.81031453c8.30349767-28.67301376 2.33535829-60.07061277-15.82854144-84.20265074zM215.14997646 411.57958089h-107.68597788c-49.95072455 0-93.80356893 47.35588238-93.80357007 101.45835575v402.07090231c0 51.76711509 42.03645385 93.933312 93.80357007 93.93331088h107.68597788V411.57958089z" p-id="2563" fill="#d81e06"></path></svg>