<?xml version="1.0" standalone="no"?><!DOCTYPE svg PUBLIC "-//W3C//DTD SVG 1.1//EN" "http://www.w3.org/Graphics/SVG/1.1/DTD/svg11.dtd"><svg t="1614398055735" class="icon" viewBox="0 0 1024 1024" version="1.1" xmlns="http://www.w3.org/2000/svg" p-id="13761" width="20" height="20" xmlns:xlink="http://www.w3.org/1999/xlink"><defs><style type="text/css"></style></defs><path d="M704 256H192c-35.328 0-64 26.048-64 58.24V384h768V314.24c0-32.192-28.672-58.24-64-58.24h-128zM320 192V128a64 64 0 0 1 64-64h256a64 64 0 0 1 64 64v64h128c70.72 0 128 52.928 128 118.144v531.712c0 65.28-57.28 118.144-128 118.144H192c-70.72 0-128-52.928-128-118.144V310.144C64 244.864 121.28 192 192 192h128z m64 0h256V128H384v64z m224 256v128a96 96 0 0 1-192 0V448H128v389.76c0 32.192 28.672 58.24 64 58.24h640c35.328 0 64-26.048 64-58.24V448H608z m-64 0h-64v128a32 32 0 0 0 64 0V448z" p-id="13762" fill="#ffffff"></path></svg>