<?xml version="1.0" standalone="no"?><!DOCTYPE svg PUBLIC "-//W3C//DTD SVG 1.1//EN" "http://www.w3.org/Graphics/SVG/1.1/DTD/svg11.dtd"><svg t="1614396703552" class="icon" viewBox="0 0 1024 1024" version="1.1" xmlns="http://www.w3.org/2000/svg" p-id="9909" width="20" height="20" xmlns:xlink="http://www.w3.org/1999/xlink"><defs><style type="text/css"></style></defs><path d="M451.550766 914.849633a26.826826 26.826826 0 0 0 35.223007 13.720591 27.236395 27.236395 0 0 0 13.720591-35.632578l-156.2509-355.097065 2.662204-5.119623c35.427793-67.988596 75.565638-145.192514 281.988845-126.76187a218.095948 218.095948 0 0 0 109.559937-18.635429l6.348333-2.866989a300.419489 300.419489 0 0 0 90.105368-68.807735 532.440812 532.440812 0 0 0 105.873807-183.077726 371.275074 371.275074 0 0 0 17.201934-70.036445c2.047849-18.635428 2.662204-44.847899-16.382794-57.33978a36.451717 36.451717 0 0 0-47.305318 8.600967l-8.396182 7.986612c-59.387629 56.725425-98.706335 94.201067-316.392714 20.478493A486.364204 486.364204 0 0 0 392.572707 16.048585a471.005334 471.005334 0 0 0-139.048966 26.826826 425.747865 425.747865 0 0 0-124.304452 67.169456 24.574191 24.574191 0 0 0-4.505268 4.710053 27.03161 27.03161 0 0 0-10.239246 33.789514z m-178.162887-821.801915A419.604317 419.604317 0 0 1 552.919305 93.252503C664.117521 131.137715 743.164503 143.42481 801.528208 132.980779A196.798316 196.798316 0 0 0 901.053682 81.989332a440.90195 440.90195 0 0 1-15.563654 48.738813 477.763237 477.763237 0 0 1-81.913971 139.663321c-51.401017 59.797199-108.536012 87.238379-169.766705 81.913971-105.669023-9.420107-184.306435 4.095699-241.646215 40.956985a237.960086 237.960086 0 0 0-75.156069 81.913971L171.404985 145.267875a404.040663 404.040663 0 0 1 101.982894-52.220157zM871.564653 634.908637c-90.924508-39.933061-216.252884-63.688113-361.240613-63.688112h-23.550267v64.712037h23.550267c262.943847 0 446.226358 84.78096 446.226358 160.960953 0 38.909136-45.257469 79.866122-124.509236 110.583861a911.497714 911.497714 0 0 1-318.440563 51.810587c-262.943847 0-446.226358-84.985745-446.226358-160.551384 0-38.909136 45.257469-80.890046 124.509236-111.607785 9.829677-3.890914 20.478493-7.372257 30.103385-10.648817v-67.579026C86.00967 648.219657 0 716.822608 0 796.893515c0 65.735962 57.33978 122.870957 152.359986 163.827942C243.284494 1000.244948 369.636795 1024 513.600599 1024 804.395197 1024 1023.924639 926.931944 1023.924639 798.736579c0-66.350317-57.33978-122.870957-152.359986-163.827942z" p-id="9910" fill="#111111"></path></svg>