<?xml version="1.0" standalone="no"?><!DOCTYPE svg PUBLIC "-//W3C//DTD SVG 1.1//EN" "http://www.w3.org/Graphics/SVG/1.1/DTD/svg11.dtd"><svg t="1614396406530" class="icon" viewBox="0 0 1024 1024" version="1.1" xmlns="http://www.w3.org/2000/svg" p-id="4983" width="20" height="20" xmlns:xlink="http://www.w3.org/1999/xlink"><defs><style type="text/css"></style></defs><path d="M512 1024a512 512 0 1 1 0-1024 512 512 0 0 1 0 1024zM512 68.142545a443.764364 443.764364 0 1 0 0 887.528728 443.764364 443.764364 0 0 0 0-887.528728z" fill="#111111" p-id="4984"></path><path d="M159.185455 725.643636l-64.046546-212.061091c-5.585455-18.432 0.186182-31.371636 17.314909-38.725818a37.050182 37.050182 0 0 1 25.879273 4.840728l158.440727 115.618909 1.396364-0.558546-42.542546-140.939636c-5.585455-18.338909 0.186182-31.278545 17.221819-38.725818 16.756364-5.213091 28.392727 1.303273 34.90909 19.362909l64.046546 212.154182c4.375273 17.687273-1.675636 29.696-18.152727 35.746909a26.810182 26.810182 0 0 1-25.041455-1.954909L170.542545 566.272l-1.303272 0.558545 42.077091 139.450182c4.375273 17.687273-1.675636 29.696-18.152728 35.84-17.314909 6.516364-28.672 0.930909-33.885091-16.477091z m242.408727-91.787636l-61.998546-204.8c-6.144-20.386909-0.651636-34.257455 16.477091-41.704727l87.691637-32.581818c14.894545-4.561455 25.693091 0.651636 32.209454 15.45309 3.351273 18.152727-2.234182 29.975273-16.756363 35.374546l-61.719273 22.993454 16.197818 53.713455 57.623273-21.410909c16.104727-3.816727 27.461818 1.675636 33.978182 16.477091 3.072 17.128727-2.978909 29.044364-18.152728 35.84l-57.623272 21.410909 17.128727 56.599273 64.418909-23.924364c15.825455-4.840727 26.624 0.372364 32.209454 15.453091 3.444364 18.152727-2.234182 29.975273-16.756363 35.374545l-90.577455 33.698909c-16.756364 5.213091-28.206545-0.837818-34.443636-17.966545z m195.118545-70.935273L490.030545 376.366545a20.666182 20.666182 0 0 1-5.399272-12.567272c-3.444364-14.894545 2.327273-26.158545 17.221818-33.885091 14.615273-5.399273 26.996364 0.186182 37.236364 16.849454l76.148363 146.152728 1.396364-0.465455-3.909818-179.572364a33.605818 33.605818 0 0 1 20.852363-31.930181c13.032727-3.723636 24.389818 0 33.978182 11.543272L761.949091 438.458182l1.396364-0.465455-17.221819-168.122182c-3.444364-18.152727 2.978909-30.72 19.083637-37.794909 15.173818-3.537455 25.879273 1.675636 32.116363 15.453091a60.416 60.416 0 0 1 2.606546 13.591273l17.687273 219.694545c-1.210182 19.828364-9.960727 32.861091-26.437819 38.912-18.338909 6.888727-32.674909 3.072-43.194181-11.35709l-84.526546-128.465455 2.327273 159.092364c-1.489455 18.804364-10.426182 31.278545-26.810182 37.422545-19.269818 7.074909-33.326545 2.606545-42.263273-13.405091z" fill="#111111" p-id="4985"></path></svg>