<?xml version="1.0" standalone="no"?><!DOCTYPE svg PUBLIC "-//W3C//DTD SVG 1.1//EN" "http://www.w3.org/Graphics/SVG/1.1/DTD/svg11.dtd"><svg t="1614346036824" class="icon" viewBox="0 0 1170 1024" version="1.1" xmlns="http://www.w3.org/2000/svg" p-id="7875" width="22.8515625" height="20" xmlns:xlink="http://www.w3.org/1999/xlink"><defs><style type="text/css"></style></defs><path d="M1144.539429 147.748571l0.512 11.995429v599.771429c0 72.850286-55.954286 132.827429-127.561143 138.971428l-11.995429 0.585143h-115.053714a40.521143 40.521143 0 0 1-40.96-40.228571c0-19.456 14.116571-36.132571 33.645714-39.643429l7.314286-0.585143h115.053714a58.294857 58.294857 0 0 0 57.197714-51.053714l0.585143-8.045714v-599.771429a58.587429 58.587429 0 0 0-50.029714-58.514286l-7.753143-0.512H140.434286a58.294857 58.294857 0 0 0-57.344 50.980572l-0.512 8.045714v599.771429c0 30.134857 21.942857 54.637714 50.029714 58.514285l7.826286 0.585143h468.48c8.777143 0 17.408 2.779429 24.502857 7.972572l4.900571 4.242285 177.810286 119.734857a39.789714 39.789714 0 0 1-1.682286 56.832 41.398857 41.398857 0 0 1-51.419428 3.730286l-5.632-4.754286-165.814857-107.373714H140.434286a139.556571 139.556571 0 0 1-139.044572-127.414857l-0.585143-12.068571v-599.771429c0-72.850286 55.881143-132.754286 127.488-138.971429L140.434286 20.260571h865.133714c73.142857 0 132.973714 56.173714 138.971429 127.488z" p-id="7876"></path><path d="M289.865143 271.798857h367.542857c31.963429 0 47.981714 15.725714 47.981714 47.250286 0 31.524571-16.018286 47.323429-47.981714 47.323428H289.865143c-32.036571 0-47.981714-15.798857-47.981714-47.250285v-0.073143c0-31.451429 15.945143-47.250286 47.981714-47.250286zM289.865143 517.705143h562.614857c32.036571 0 47.981714 15.725714 47.981714 47.177143v0.073143c0 31.451429-15.945143 47.250286-47.981714 47.250285H289.865143c-32.036571 0-47.981714-15.725714-47.981714-47.250285 0-31.524571 15.945143-47.250286 47.981714-47.250286z" p-id="7877"></path></svg>