<?xml version="1.0" standalone="no"?><!DOCTYPE svg PUBLIC "-//W3C//DTD SVG 1.1//EN" "http://www.w3.org/Graphics/SVG/1.1/DTD/svg11.dtd"><svg t="1614337407141" class="icon" viewBox="0 0 1024 1024" version="1.1" xmlns="http://www.w3.org/2000/svg" p-id="6186" width="20" height="20" xmlns:xlink="http://www.w3.org/1999/xlink"><defs><style type="text/css"></style></defs><path d="M576.893428 1024c-17.266497 0-33.155911-3.919389-48.445059-11.934715L396.601542 938.550262a99.044015 99.044015 0 0 1-52.470376-88.062664V431.819192a20.691548 20.691548 0 0 0-7.944707-15.889414L31.039089 171.621209l-3.319122-3.990009C-0.775049 139.065565-7.342674 96.729103 8.476121 59.618494A97.666932 97.666932 0 0 1 100.069766 0.015536h823.07165c39.723535 0 75.562991 23.163235 92.193911 59.602958a98.620297 98.620297 0 0 1-17.937383 107.977396l-4.025318 3.884079-308.96083 247.133354a21.185885 21.185885 0 0 0-7.27382 15.889414v488.793687A99.326493 99.326493 0 0 1 579.188565 1024h-2.295137zM83.438845 112.018251l303.805598 242.401839a100.032689 100.032689 0 0 1 37.852115 78.105298v418.633096c0 7.273821 3.177883 14.512332 9.886747 17.902074l131.917447 72.13794c6.461695 3.354432 14.123924 3.354432 20.620928 0a20.832787 20.832787 0 0 0 9.886747-17.902074V435.173624c0-30.401746 13.276488-58.967381 37.110609-78.211228l304.511794-244.944145a20.40907 20.40907 0 0 0 1.977349-21.256505 20.020662 20.020662 0 0 0-17.937383-11.334449H100.069766a18.961367 18.961367 0 0 0-17.866764 11.334449 20.161901 20.161901 0 0 0 1.235843 21.185885v0.07062z m899.941105 415.843621h-226.124018a39.900084 39.900084 0 0 1-39.829464-39.688225 39.900084 39.900084 0 0 1 39.758845-39.794155h226.124017c21.962701 0 39.900084 17.937383 39.900084 39.688226a39.052649 39.052649 0 0 1-39.829464 39.794154z m0 149.713591h-226.124018a39.900084 39.900084 0 0 1-39.829464-39.794155c0-21.892082 17.937383-39.688225 39.758845-39.688225h226.124017c21.962701 0 39.900084 17.937383 39.900084 39.617606a39.052649 39.052649 0 0 1-39.829464 39.864774z m0 149.007394h-226.124018a39.900084 39.900084 0 0 1-39.829464-39.758845c0-21.892082 17.937383-39.688225 39.758845-39.688225h226.124017c21.962701 0 39.900084 17.831454 39.900084 39.688225 0 21.892082-17.301806 39.688225-39.829464 39.688226v0.070619z" fill="#F06E32" p-id="6187"></path></svg>